<?xml version="1.0" encoding="utf-8"?>
<!-- Generator: Adobe Illustrator 21.1.0, SVG Export Plug-In . SVG Version: 6.00 Build 0)  -->
<svg version="1.1" id="Warstwa_1" xmlns="http://www.w3.org/2000/svg" xmlns:xlink="http://www.w3.org/1999/xlink" x="0px" y="0px"
	 viewBox="0 0 282.7 70.7" style="enable-background:new 0 0 282.7 70.7;" xml:space="preserve">
<style type="text/css">
	.st0{fill:#FFFFFF;}
	.st1{fill-rule:evenodd;clip-rule:evenodd;fill:#FFFFFF;}
</style>
<g>
	<g>
		<path class="st0" d="M53.9,6.6c-2.5,0-4.8,0.6-7,1.7c-2.1,1.1-4.1,2.7-5.8,4.6l1.6,1.6l3.2-3.2c0.4-0.4,1-0.4,1.3,0L49,13
			c0.4,0.4,0.4,1,0,1.3l-0.7,0.7l4.7,4.7c3.7,3.7,4.1,9.5,1.1,13.7c3.3,3.9,5,7.9,4.9,11.8c0,0.1,0,0.1,0,0.2c1-0.9,2-1.8,2.9-2.6
			c2.7-2.5,4.8-4.4,5.1-4.7c1.7-1.7,3-3.7,4-5.9c0.9-2.2,1.5-4.6,1.5-7.2c0-2.6-0.5-5-1.5-7.2c-0.9-2.2-2.3-4.2-4-5.9
			c-1.7-1.7-3.7-3-5.9-4C59,7.1,56.5,6.6,53.9,6.6C54,6.6,54,6.6,53.9,6.6L53.9,6.6L53.9,6.6z"/>
		<path class="st0" d="M54,5.7L54,5.7c2.7,0,5.2,0.5,7.6,1.5c2.3,1,4.4,2.4,6.2,4.2c1.8,1.8,3.2,3.9,4.2,6.2c1,2.3,1.5,4.9,1.5,7.6
			c0,2.7-0.5,5.2-1.5,7.6c-1,2.3-2.4,4.4-4.2,6.2c-0.4,0.4-2.4,2.3-5.2,4.7c-1.4,1.3-3.1,2.8-4.8,4.3c0.2-0.9,0.3-1.7,0.4-2.6
			c0.1-3.9-1.6-7.8-5.1-11.8c3.2-3.9,2.9-9.5-0.7-13.1L47,15.1l1.4-1.4L46.7,12l-3.9,3.9L39.9,13c0.1-0.2,0.3-0.4,0.4-0.5
			c1.8-2,3.9-3.7,6.2-4.9C48.8,6.4,51.3,5.7,54,5.7L54,5.7z M22.1,5.7c2.6,0,5.2,0.7,7.5,1.8c2.3,1.2,4.4,2.9,6.2,4.9l2.3,2.2l3,3
			l-5.3,5.3l-6.1-6.1l-1.7,1.7l6.1,6.1l-3.9,3.9l1.7,1.7l1.4-1.4l5.3,5.3c3.4,3.3,8.6,3.8,12.5,1.1c3.1,3.6,4.5,6.9,4.4,9.9
			c-0.1,2.8-1.3,5.5-3.8,8.2c-3.1,2.8-6.2,5.5-8.7,7.6c-1.4,1.2-2.6,2.2-3.6,2.9c-0.7,0.6-1,0.7-1.3,0.9c-0.3-0.2-0.6-0.4-1.3-0.9
			c-0.9-0.7-2.2-1.7-3.6-2.9c-2.8-2.4-6.4-5.5-9.9-8.6c-3.5-3.1-7-6.3-9.8-8.8c-2.7-2.5-4.8-4.4-5.2-4.7c-1.8-1.8-3.2-3.8-4.2-6.2
			c-1-2.3-1.5-4.9-1.5-7.6c0-2.7,0.5-5.2,1.5-7.6c1-2.3,2.4-4.4,4.2-6.2c1.8-1.8,3.9-3.2,6.2-4.2C16.9,6.2,19.4,5.7,22.1,5.7z M54,3
			L54,3L54,3c-3.1,0-6.1,0.8-8.7,2.1c-2.7,1.4-5,3.3-7,5.5c-0.1,0.1-0.1,0.2-0.2,0.3c-0.1-0.1-0.1-0.2-0.2-0.3c-2-2.3-4.3-4.2-7-5.6
			C28.2,3.8,25.2,3,22.1,3c-3,0-6,0.6-8.6,1.7c-2.6,1.1-5,2.7-7,4.7c-2,2-3.6,4.4-4.7,7C0.6,19.1,0,22.1,0,25.1c0,3,0.6,6,1.7,8.6
			c1.1,2.6,2.7,5,4.7,7c0.6,0.6,2.5,2.3,5.2,4.8c2.8,2.5,6.3,5.7,9.8,8.8c3.5,3.1,7.1,6.2,9.9,8.7c1.4,1.2,2.7,2.2,3.6,3
			c1,0.8,1.5,1.3,2.3,1.6l0,0l0,0c0.2,0.1,0.3,0.1,0.5,0.1h0.1c0.2,0,0.4,0,0.5-0.1l0,0l0,0c0.8-0.3,1.3-0.8,2.3-1.6
			c1-0.8,2.2-1.8,3.6-3c2.1-1.8,4.7-4.1,7.4-6.4l0.1,0.1c0.5-0.5,1-0.9,1.4-1.4c0.4-0.3,0.7-0.6,1.1-0.9c3.5-3.1,7.1-6.3,9.8-8.8
			c2.8-2.5,4.7-4.2,5.2-4.8c2-2,3.6-4.4,4.7-7c1.1-2.6,1.7-5.6,1.7-8.6c0-3-0.6-6-1.7-8.6c-1.1-2.6-2.7-5-4.7-7c-2-2-4.4-3.6-7-4.7
			C59.9,3.6,57,3,54,3z"/>
		<path class="st1" d="M28.5,9.6c-10.4,1.4-10.6,1.6-14.6,4.2c-2.2,1.4-4,3.8-5.1,6c-1.5,2.9-2.1,6.4-1.4,10
			c0.7,3.5,2.7,7.1,6.3,10.1c-3.8-2.7-6.2-6.1-7.4-9.8c-1.2-3.7-1-7.6,0.4-11.2c1.1-2.7,2.8-5.2,5.2-7.2C17.4,7.2,23,7.5,28.5,9.6z"
			/>
	</g>
	<path class="st0" d="M137.2,59.7c-0.3-1.7-1.3-3.1-3.2-3.1c-1.9,0-3.1,1.6-3.1,3.4c0,2,1,2.6,2.6,3.5c1.4,0.8,2.6,1.4,2.6,3.2
		c0,1.6-0.8,2.4-2,2.4c-1.6,0-2-1.1-2.1-2.6l-1.4,0.2c0.2,2.1,1.1,3.7,3.5,3.7c2.3,0,3.4-1.7,3.4-3.8c0-2.1-1.1-2.9-2.8-3.9
		c-2.1-1.3-2.4-1.6-2.4-2.7c0-1.1,0.5-2.2,1.8-2.2c1.2,0,1.6,1,1.9,2L137.2,59.7z"/>
	<polygon class="st0" points="157.8,70.4 159.2,70.4 159.2,63.8 163.4,63.8 163.4,70.4 164.7,70.4 164.7,56.9 163.4,56.9 
		163.4,62.5 159.2,62.5 159.2,56.9 157.8,56.9 	"/>
	<polygon class="st0" points="188,69.2 186.1,69.2 186.1,70.4 191.2,70.4 191.2,69.2 189.3,69.2 189.3,58.1 191.2,58.1 191.2,56.9 
		186.1,56.9 186.1,58.1 188,58.1 	"/>
	<path class="st0" d="M213.2,70.4h1.4v-6h1.5l3,6.3l1.2-0.6l-2.8-5.8c1.7-0.6,2.3-2.1,2.3-3.8c0-2.4-1.7-3.6-3-3.6h-3.6V70.4z
		 M214.6,58.1h1.7c1.4,0,2.2,0.6,2.2,2.4c0,1.8-0.7,2.7-1.9,2.7h-2V58.1z"/>
	<polygon class="st0" points="242.7,70.4 244.1,70.4 244.1,58.1 247,58.1 247,56.9 239.8,56.9 239.8,58.1 242.7,58.1 	"/>
	<path class="st0" d="M199.6,17.3l5.8,16.6h-11.9L199.6,17.3z M193.6,4.4l-10.7,17.2h9.3l-21.5,27.6l-0.1,0.3h18l1.7-4.2h18.4
		l1.9,4.2h18.9l-18-45.1H193.6z"/>
	<path class="st0" d="M170.8,49.2l-0.2,0.3h0.1L170.8,49.2z M130.8,4.4l18,45.1h20l8.7-17.3h-10.1l16.8-27.8h-13.9l-10.9,27.2
		L148.5,4.4H130.8z"/>
	<polygon class="st0" points="95.7,49.5 95.7,4.4 113,4.4 113,38 140.6,38 145.2,49.5 	"/>
	<path class="st0" d="M248,15.9h7c1.8,0,3,0,3.5,0c3.1,0.1,5.3,1.2,6.5,3.2c1.2,1.9,1.8,4.5,1.8,7.8c0,4-0.8,6.9-2.3,8.7
		c-1.4,1.6-4.5,2.4-9.4,2.4H248V15.9z M233.2,4.4v45.1h25.9c2.1,0,3.8,0,5-0.1c3.8-0.2,6.8-0.7,8.8-1.7c6.5-3,9.7-9.8,9.7-20.3
		c0-8.8-2.3-15.2-7-19c-2.5-2.1-5.7-3.3-9.7-3.8c-1.9-0.2-4.2-0.3-7.1-0.3H233.2z"/>
</g>
</svg>
