<?xml version="1.0" encoding="utf-8"?>
<!-- Generator: Adobe Illustrator 21.1.0, SVG Export Plug-In . SVG Version: 6.00 Build 0)  -->
<svg version="1.1" id="Warstwa_1" xmlns="http://www.w3.org/2000/svg" xmlns:xlink="http://www.w3.org/1999/xlink" x="0px" y="0px"
	 viewBox="0 0 23 34.9" style="enable-background:new 0 0 23 34.9;" xml:space="preserve">
<style type="text/css">
	.st0{fill:#DEDFE0;}
</style>
<g>
	<path class="st0" d="M3.6,5.4c0-0.3,0.1-0.5,0.3-0.7l1.5-1.5C5.5,3,5.8,2.9,6,2.9S6.5,3,6.7,3.2L20.5,17c0.2,0.2,0.3,0.4,0.3,0.7
		c0,0.2-0.1,0.5-0.3,0.7L6.7,32.2c-0.2,0.2-0.4,0.3-0.7,0.3s-0.5-0.1-0.7-0.3l-1.5-1.5c-0.2-0.2-0.3-0.4-0.3-0.7
		c0-0.2,0.1-0.5,0.3-0.7l11.6-11.6L3.9,6.1C3.7,5.9,3.6,5.6,3.6,5.4z"/>
</g>
</svg>
