<?xml version="1.0" encoding="utf-8"?>
<!-- Generator: Adobe Illustrator 21.1.0, SVG Export Plug-In . SVG Version: 6.00 Build 0)  -->
<svg version="1.1" id="Warstwa_1" xmlns="http://www.w3.org/2000/svg" xmlns:xlink="http://www.w3.org/1999/xlink" x="0px" y="0px"
	 viewBox="0 0 23 34.9" style="enable-background:new 0 0 23 34.9;" xml:space="preserve">
<style type="text/css">
	.st0{fill:#DEDFE0;}
</style>
<g>
	<path class="st0" d="M20.5,6.1L8.9,17.7l11.6,11.6c0.2,0.2,0.3,0.4,0.3,0.7c0,0.2-0.1,0.5-0.3,0.7L19,32.2
		c-0.2,0.2-0.4,0.3-0.7,0.3s-0.5-0.1-0.7-0.3L3.9,18.4c-0.2-0.2-0.3-0.4-0.3-0.7c0-0.2,0.1-0.5,0.3-0.7L17.7,3.2
		c0.2-0.2,0.4-0.3,0.7-0.3S18.9,3,19,3.2l1.5,1.5c0.2,0.2,0.3,0.4,0.3,0.7C20.8,5.6,20.7,5.9,20.5,6.1z"/>
</g>
</svg>
