<?xml version="1.0" encoding="utf-8"?>
<!-- Generator: Adobe Illustrator 16.0.0, SVG Export Plug-In . SVG Version: 6.00 Build 0)  -->
<!DOCTYPE svg PUBLIC "-//W3C//DTD SVG 1.1//EN" "http://www.w3.org/Graphics/SVG/1.1/DTD/svg11.dtd">
<svg version="1.1" id="Layer_1" xmlns="http://www.w3.org/2000/svg" xmlns:xlink="http://www.w3.org/1999/xlink" x="0px" y="0px"
	 width="27px" height="18px" viewBox="0 0 27 18" enable-background="new 0 0 27 18" xml:space="preserve">
<g>
	<path fill="#CACCCE" d="M26,1v16H1V1H26 M27,0H0v18h27V0L27,0z"/>
</g>
<circle fill="none" stroke="#00009C" stroke-miterlimit="10" cx="13.219" cy="9.031" r="7.094"/>
<line fill="none" stroke="#00009C" stroke-miterlimit="10" x1="5.938" y1="8.984" x2="20.563" y2="8.984"/>
<line fill="none" stroke="#00009C" stroke-miterlimit="10" x1="13.25" y1="16.25" x2="13.25" y2="1.625"/>
<g>
	<path fill="none" stroke="#00009C" stroke-miterlimit="10" d="M18.909,5.391c-1.631,0.395-3.601,0.625-5.722,0.625
		c-2.288,0-4.4-0.269-6.102-0.722"/>
	<path fill="none" stroke="#00009C" stroke-miterlimit="10" d="M6.935,12.717c1.726-0.479,3.896-0.764,6.253-0.764
		c2.335,0,4.486,0.279,6.205,0.749"/>
</g>
<path fill="none" stroke="#00009C" stroke-miterlimit="10" d="M16.643,2.776c0.479,1.726,0.764,3.896,0.764,6.253
	c0,2.335-0.279,4.486-0.749,6.205"/>
<path fill="none" stroke="#00009C" stroke-miterlimit="10" d="M10.218,15.234c-0.479-1.726-0.764-3.896-0.764-6.253
	c0-2.335,0.279-4.486,0.749-6.205"/>
</svg>
