<?xml version="1.0" encoding="utf-8"?>
<!-- Generator: Adobe Illustrator 16.0.0, SVG Export Plug-In . SVG Version: 6.00 Build 0)  -->
<!DOCTYPE svg PUBLIC "-//W3C//DTD SVG 1.1//EN" "http://www.w3.org/Graphics/SVG/1.1/DTD/svg11.dtd">
<svg version="1.1" id="Layer_1" xmlns="http://www.w3.org/2000/svg" xmlns:xlink="http://www.w3.org/1999/xlink" x="0px" y="0px"
	 width="27px" height="18px" viewBox="0 0 27 18" enable-background="new 0 0 27 18" xml:space="preserve">
<g>
	<g>
		<rect fill="#FFFFFF" width="26.5" height="18"/>
		<path fill="#FFFFFF" d="M13.25,9.167"/>
	</g>
	<g>
		<rect x="0.51" y="0.493" fill="#034EA2" width="25.479" height="16.986"/>
		<path fill="#034EA2" d="M13.25,8.987"/>
	</g>
	<g>
		<polygon fill="#FFF100" points="12.707,4.194 13.244,3.802 13.781,4.194 13.578,3.561 14.124,3.168 13.451,3.168 13.244,2.525 
			13.039,3.168 12.366,3.168 12.912,3.561 		"/>
		<polygon fill="#FFF100" points="9.924,4.942 10.462,4.55 11,4.942 10.796,4.307 11.34,3.916 10.668,3.916 10.462,3.272 
			10.255,3.917 9.583,3.916 10.128,4.307 		"/>
		<polygon fill="#FFF100" points="8.426,5.313 8.221,5.957 7.548,5.956 8.093,6.348 7.889,6.983 8.426,6.59 8.964,6.983 8.76,6.348 
			9.305,5.956 8.632,5.956 		"/>
		<polygon fill="#FFF100" points="7.679,9.37 8.216,9.761 8.012,9.127 8.559,8.735 7.886,8.735 7.679,8.091 7.473,8.736 6.8,8.735 
			7.347,9.127 7.141,9.761 		"/>
		<polygon fill="#FFF100" points="8.632,11.521 8.426,10.879 8.221,11.522 7.548,11.521 8.093,11.914 7.889,12.549 8.426,12.155 
			8.964,12.549 8.76,11.914 9.305,11.521 		"/>
		<polygon fill="#FFF100" points="10.672,13.562 10.466,12.919 10.261,13.563 9.586,13.562 10.133,13.954 9.929,14.588 
			10.466,14.196 11.004,14.588 10.8,13.954 11.345,13.562 		"/>
		<polygon fill="#FFF100" points="13.451,14.301 13.246,13.658 13.04,14.302 12.366,14.301 12.912,14.693 12.708,15.329 
			13.246,14.935 13.783,15.329 13.578,14.693 14.124,14.301 		"/>
		<polygon fill="#FFF100" points="16.23,13.562 16.024,12.919 15.817,13.563 15.145,13.562 15.691,13.954 15.487,14.588 
			16.024,14.196 16.563,14.588 16.356,13.954 16.903,13.562 		"/>
		<polygon fill="#FFF100" points="18.271,11.521 18.063,10.879 17.857,11.522 17.185,11.521 17.731,11.914 17.527,12.549 
			18.063,12.155 18.601,12.549 18.396,11.914 18.943,11.521 		"/>
		<polygon fill="#FFF100" points="19.682,8.727 19.009,8.727 18.802,8.084 18.597,8.728 17.924,8.727 18.47,9.119 18.266,9.754 
			18.802,9.361 19.34,9.754 19.136,9.119 		"/>
		<polygon fill="#FFF100" points="17.527,6.974 18.063,6.582 18.601,6.974 18.396,6.339 18.943,5.948 18.271,5.948 18.063,5.305 
			17.857,5.948 17.185,5.948 17.731,6.339 		"/>
		<polygon fill="#FFF100" points="16.032,3.273 15.826,3.917 15.153,3.916 15.698,4.308 15.494,4.943 16.033,4.55 16.569,4.943 
			16.365,4.308 16.912,3.916 16.237,3.916 		"/>
	</g>
</g>
<g>
	<path fill="#CACCCE" d="M26,1v16H1V1H26 M27,0H0v18h27V0L27,0z"/>
</g>
</svg>
