<?xml version="1.0" encoding="utf-8"?>
<!-- Generator: Adobe Illustrator 16.0.0, SVG Export Plug-In . SVG Version: 6.00 Build 0)  -->
<!DOCTYPE svg PUBLIC "-//W3C//DTD SVG 1.1//EN" "http://www.w3.org/Graphics/SVG/1.1/DTD/svg11.dtd">
<svg version="1.1" id="Layer_1" xmlns="http://www.w3.org/2000/svg" xmlns:xlink="http://www.w3.org/1999/xlink" x="0px" y="0px"
	 width="22.875px" height="20.875px" viewBox="0 0 22.875 20.875" enable-background="new 0 0 22.875 20.875" xml:space="preserve">
<g>
	<g>
		<path fill-rule="evenodd" clip-rule="evenodd" fill="#339933" d="M21.682,7.845c-0.381,1.201-0.765,2.401-1.144,3.605
			c-0.305,0.971-0.603,1.944-0.904,2.916c-0.273,0.881-0.687,1.184-1.604,1.184c-3.283,0-6.566,0-9.85,0
			c-0.871,0-1.37-0.362-1.626-1.188c-0.929-2.976-1.861-5.951-2.775-8.932c-0.121-0.394-0.33-0.578-0.725-0.642
			C2.259,4.662,1.469,4.494,0.672,4.366C0.379,4.318,0.154,4.204,0,3.954c0-0.128,0-0.255,0-0.383
			c0.206-0.351,0.496-0.428,0.892-0.344c0.841,0.178,1.691,0.313,2.535,0.47c0.7,0.129,1.167,0.532,1.39,1.206
			c0.149,0.453,0.293,0.908,0.419,1.369C5.297,6.5,5.396,6.597,5.65,6.586c0.539-0.023,1.084,0.001,1.625-0.011
			c0.196-0.005,0.283,0.057,0.325,0.25c0.063,0.287,0.158,0.569,0.253,0.898c-0.72,0-1.411,0-2.14,0
			c0.037,0.148,0.059,0.25,0.089,0.348c0.614,1.975,1.234,3.948,1.84,5.925c0.089,0.292,0.24,0.41,0.545,0.409
			c3.305-0.006,6.608-0.005,9.913,0c0.214,0,0.332-0.067,0.396-0.273c0.646-2.087,1.296-4.173,1.944-6.259
			c0.012-0.038,0.008-0.081,0.016-0.149c-0.702,0-1.39,0-2.124,0c0.104-0.368,0.19-0.704,0.301-1.032
			c0.019-0.057,0.146-0.105,0.225-0.107c0.595-0.009,1.19-0.011,1.785-0.002c0.519,0.006,0.837,0.301,1.038,0.752
			C21.682,7.504,21.682,7.673,21.682,7.845z"/>
	</g>
	<g>
		<path fill-rule="evenodd" clip-rule="evenodd" fill="#339933" d="M13.71,0c0.255,0.064,0.511,0.121,0.763,0.193
			c2.161,0.617,3.669,2.749,3.491,4.935c-0.194,2.385-1.928,4.231-4.236,4.513c-2.649,0.323-5.041-1.488-5.424-4.109
			c-0.384-2.623,1.436-5.064,4.08-5.476C12.444,0.047,12.503,0.02,12.563,0C12.945,0,13.327,0,13.71,0z M10.672,7.928
			c1.627,1.364,4.144,1.082,5.523-0.617c1.367-1.682,0.947-3.949-0.037-4.908l-0.685-0.695c-1.195-1.041-3.53-1.24-5.132,0.322
			c-1.427,1.394-1.59,3.845-0.354,5.191L10.672,7.928z"/>
	</g>
	<g>
		<path fill-rule="evenodd" clip-rule="evenodd" fill="#339933" d="M15.241,20.279c-0.087-0.035-0.172-0.073-0.26-0.104
			c-0.908-0.32-1.433-1.22-1.263-2.169c0.16-0.892,0.986-1.563,1.912-1.551c0.938,0.01,1.708,0.687,1.865,1.636
			c0.149,0.899-0.398,1.79-1.288,2.091c-0.09,0.03-0.177,0.064-0.267,0.097C15.709,20.279,15.475,20.279,15.241,20.279z"/>
	</g>
	<g>
		<path fill-rule="evenodd" clip-rule="evenodd" fill="#339933" d="M10.14,20.279c-0.088-0.034-0.174-0.071-0.262-0.102
			c-0.909-0.316-1.429-1.201-1.267-2.165c0.148-0.887,0.978-1.565,1.904-1.557c0.912,0.007,1.713,0.682,1.861,1.566
			c0.159,0.962-0.361,1.847-1.272,2.158c-0.09,0.031-0.176,0.066-0.263,0.099C10.606,20.279,10.373,20.279,10.14,20.279z"/>
	</g>
</g>
<g>
	<polygon fill="#339933" points="12.815,7.055 10.496,4.391 11.25,3.734 12.849,5.568 15.637,2.635 16.361,3.324 	"/>
</g>
</svg>
