<?xml version="1.0" encoding="utf-8"?>
<!-- Generator: Adobe Illustrator 21.1.0, SVG Export Plug-In . SVG Version: 6.00 Build 0)  -->
<svg version="1.1" id="Warstwa_1" xmlns="http://www.w3.org/2000/svg" xmlns:xlink="http://www.w3.org/1999/xlink" x="0px" y="0px"
	 viewBox="0 0 479.9 595.3" style="enable-background:new 0 0 479.9 595.3;" xml:space="preserve">
<style type="text/css">
	.st0{fill:#E84E50;}
	.st1{fill-rule:evenodd;clip-rule:evenodd;fill:#E84E50;}
</style>
<g>
	<path class="st0" d="M315.7,248.1c-12.7,0-24.9,3.2-36.1,9c-11,5.6-21.1,13.8-29.7,23.5l8.3,8.3l16.7-16.7c1.9-1.9,4.9-1.9,6.8,0
		l8.9,8.9c1.9,1.9,1.9,4.9,0,6.8l-3.7,3.7l24.1,24.1c18.9,19,21.1,48.7,5.9,70.3c16.8,20,25.7,40.6,25.2,60.9c0,0.4-0.1,0.8-0.2,1.2
		c5.1-4.6,10.5-9.5,15-13.5c14.1-12.8,24.9-22.7,26.3-24.2c8.6-8.6,15.6-18.8,20.4-30.2c4.8-11.4,7.5-23.9,7.5-37
		c0-13.2-2.7-25.7-7.5-37c-4.8-11.4-11.8-21.6-20.4-30.2c-8.6-8.6-18.9-15.6-30.2-20.4c-11.4-4.8-23.9-7.5-37-7.5
		C315.9,248.1,315.8,248.1,315.7,248.1L315.7,248.1L315.7,248.1z"/>
	<path class="st0" d="M315.9,243.3L315.9,243.3c13.8,0,26.9,2.8,38.9,7.9c11.9,5.1,22.7,12.4,31.7,21.4c9,9,16.4,19.8,21.4,31.8
		c5.1,11.9,7.9,25.1,7.9,38.9c0,13.8-2.8,26.9-7.9,38.9c-5,12-12.4,22.7-21.4,31.8c-2,2-12.4,11.6-26.5,24.4
		c-7.3,6.6-15.8,14.2-24.7,22.2c1.1-4.4,1.7-8.9,1.8-13.5c0.5-19.9-8.3-40.3-26.3-60.6c16.2-20,14.7-49-3.4-67.2L280,291.7l7.1-7.1
		l-8.9-8.9l-20.1,20.1L243.4,281c0.7-1,1.4-2,2.2-2.8c9.1-10.5,19.9-19.2,31.8-25.3C289.3,246.8,302.3,243.3,315.9,243.3
		L315.9,243.3z M151.9,243.3c13.6,0,26.6,3.4,38.5,9.5c11.9,6.1,22.7,14.8,31.9,25.3l11.8,11.2l15.2,15.2L221.9,332l-31.2-31.2
		l-8.9,8.9l31.2,31.2l-20.1,20.1l8.9,8.9l7.1-7.1l27.5,27.5c17.3,17.2,44.4,19.6,64.4,5.5c16.2,18.4,22.9,35.3,22.6,50.8
		c-0.4,14.4-6.9,28.4-19.7,42c-16.1,14.2-32.1,28.2-44.9,39c-7.2,6.1-13.5,11.3-18.3,15.1c-3.6,2.9-5.2,3.8-6.5,4.7
		c-1.3-0.9-2.9-1.8-6.5-4.7c-4.8-3.8-11.1-9-18.3-15.1c-14.5-12.2-32.7-28.2-50.9-44.3c-18.2-16.1-36.2-32.3-50.4-45.1
		c-14.1-12.8-24.6-22.4-26.5-24.4c-9-9-16.4-19.8-21.4-31.8c-5-11.9-7.8-25.1-7.8-38.9c0-13.8,2.8-26.9,7.8-38.9
		c5.1-12,12.4-22.7,21.4-31.8c9-9,19.8-16.4,31.8-21.4C124.9,246.1,138.1,243.3,151.9,243.3z M315.9,229.5L315.9,229.5L315.9,229.5
		c-16,0-31.2,4.1-44.9,11.1c-13.7,7-25.8,16.8-36,28.6c-0.5,0.6-0.7,1.1-1.2,1.7c-0.5-0.6-0.7-1.1-1.2-1.7
		c-10.2-11.7-22.3-21.6-36-28.6c-13.7-7-28.8-11-44.8-11c-15.7,0-30.7,3.2-44.3,8.9c-13.6,5.8-25.9,14.1-36.2,24.4
		c-10.3,10.3-18.6,22.5-24.4,36.1c-5.8,13.6-8.9,28.6-8.9,44.3c0,15.7,3.2,30.7,8.9,44.3c5.8,13.6,14.1,25.9,24.4,36.1
		c3,3,12.8,12,27,24.9c14.2,12.8,32.3,29.1,50.5,45.2c18.2,16.1,36.5,32.1,51.1,44.5c7.3,6.2,13.7,11.4,18.7,15.4
		c5,3.9,7.9,6.5,11.8,8.1l0,0l0.3,0.1c0.8,0.4,1.7,0.5,2.7,0.5h0.6c0.9,0,1.8-0.2,2.7-0.5l0.3-0.1l0,0c3.9-1.7,6.9-4.2,11.9-8.1
		c5-4,11.4-9.2,18.7-15.4c11-9.3,24.4-21,38-32.9l0.4,0.4c2.6-2.4,5-4.8,7.4-7.2c1.8-1.6,3.6-3.2,5.4-4.8
		c18.2-16.1,36.3-32.4,50.5-45.2c14.2-12.8,24-21.8,27-24.9c10.3-10.3,18.6-22.5,24.4-36.1c5.8-13.6,9-28.6,9-44.3
		c0-15.7-3.2-30.6-8.9-44.3c-5.8-13.6-14.1-25.9-24.4-36.2c-10.3-10.3-22.5-18.6-36.1-24.4C346.6,232.7,331.6,229.5,315.9,229.5z"/>
	<path class="st1" d="M184.7,263.2c-53.5,7-54.4,8.4-75.1,21.8c-11.1,7.3-20.4,19.4-26.3,30.7c-7.9,15.1-10.9,33.1-7.2,51.2
		c3.6,18.1,13.9,36.5,32.3,51.9c-19.6-13.8-32.1-31.4-38.1-50.4c-5.9-19-5.1-39.2,2.1-57.7c5.4-13.9,14.5-26.7,27-36.9
		C127.5,251.3,156.5,252.5,184.7,263.2z"/>
	<path class="st0" d="M130.8,189.4c-0.7-3.4-2.5-6.1-6.3-6.1c-3.8,0-6.2,3.2-6.2,6.8c0,3.9,2.1,5.2,5.1,7c2.8,1.6,5.1,2.8,5.1,6.3
		c0,3.2-1.6,4.8-4,4.8c-3.3,0-3.9-2.3-4.3-5.2l-2.7,0.4c0.4,4.3,2.1,7.4,6.9,7.4c4.5,0,6.8-3.3,6.8-7.6c0-4.1-2.2-5.8-5.5-7.8
		c-4.2-2.5-4.7-3.2-4.7-5.4c0-2.2,1-4.3,3.5-4.3c2.3,0,3.3,2,3.7,3.9L130.8,189.4z"/>
	<polygon class="st0" points="171.7,210.4 174.4,210.4 174.4,197.3 182.7,197.3 182.7,210.4 185.3,210.4 185.3,183.6 182.7,183.6 
		182.7,194.9 174.4,194.9 174.4,183.6 171.7,183.6 	"/>
	<polygon class="st0" points="231.4,208 227.8,208 227.8,210.4 237.7,210.4 237.7,208 234.1,208 234.1,186.1 237.7,186.1 
		237.7,183.6 227.8,183.6 227.8,186.1 231.4,186.1 	"/>
	<path class="st0" d="M281.4,210.4h2.7v-11.9h3l6,12.5l2.4-1.2l-5.5-11.5c3.3-1.1,4.6-4.3,4.6-7.6c0-4.8-3.3-7.1-6-7.1h-7.2V210.4z
		 M284.1,186.1h3.3c2.7,0,4.4,1.2,4.4,4.7c0,3.6-1.4,5.3-3.8,5.3h-3.9V186.1z"/>
	<polygon class="st0" points="339.9,210.4 342.6,210.4 342.6,186.1 348.3,186.1 348.3,183.6 334.1,183.6 334.1,186.1 339.9,186.1 	
		"/>
	<path class="st0" d="M254.5,105.3l11.6,32.8h-23.6L254.5,105.3z M242.6,79.7l-21.2,34.2h18.5l-42.6,54.6l-0.2,0.6h35.8l3.3-8.2
		h36.5l3.7,8.2h37.4l-35.8-89.4H242.6z"/>
	<path class="st0" d="M197.4,168.5l-0.5,0.6h0.2L197.4,168.5z M118.1,79.7l35.8,89.4h39.7l17.3-34.3h-20L224,79.7h-27.6l-21.6,54
		l-21.6-54H118.1z"/>
	<polygon class="st0" points="48.6,169.1 48.6,79.7 82.8,79.7 82.8,146.3 137.6,146.3 146.7,169.1 	"/>
	<path class="st0" d="M350.5,102.5h13.8c3.6,0,5.9,0,7,0.1c6.1,0.3,10.4,2.4,12.9,6.4c2.4,3.8,3.6,9,3.6,15.4
		c0,7.9-1.5,13.7-4.6,17.2c-2.7,3.1-8.9,4.7-18.6,4.7h-14.2V102.5z M321,79.7v89.4h51.4c4.2,0,7.6,0,10-0.1
		c7.6-0.3,13.4-1.4,17.5-3.3c12.9-6,19.3-19.4,19.3-40.1c0-17.5-4.6-30-14-37.7c-4.9-4.1-11.4-6.6-19.3-7.5c-3.7-0.4-8.3-0.6-14-0.6
		H321z"/>
</g>
</svg>
