<?xml version="1.0" encoding="utf-8"?>
<!-- Generator: Adobe Illustrator 21.1.0, SVG Export Plug-In . SVG Version: 6.00 Build 0)  -->
<svg version="1.1" id="Warstwa_1" xmlns="http://www.w3.org/2000/svg" xmlns:xlink="http://www.w3.org/1999/xlink" x="0px" y="0px"
	 viewBox="0 0 1925.6 595.3" style="enable-background:new 0 0 1925.6 595.3;" xml:space="preserve">
<style type="text/css">
	.st0{fill:#E84E50;}
	.st1{fill-rule:evenodd;clip-rule:evenodd;fill:#E84E50;}
</style>
<g>
	<path class="st0" d="M385.3,105.7c-16.5,0-32.3,4.2-46.8,11.6c-14.3,7.3-27.4,17.8-38.5,30.5l10.7,10.7l21.6-21.6
		c2.4-2.4,6.4-2.4,8.8,0l11.5,11.5c2.4,2.4,2.4,6.4,0,8.8l-4.8,4.8l31.3,31.3c24.6,24.6,27.3,63.1,7.7,91.2
		c21.8,26,33.3,52.6,32.7,79c0,0.5-0.2,1-0.2,1.5c6.7-6,13.7-12.3,19.4-17.5c18.3-16.6,32.2-29.5,34.1-31.4
		c11.2-11.2,20.2-24.4,26.4-39.2c6.2-14.7,9.7-30.9,9.7-48c0-17.1-3.4-33.3-9.7-48c-6.2-14.7-15.3-28-26.4-39.2
		c-11.2-11.2-24.4-20.2-39.2-26.4c-14.7-6.2-30.9-9.7-48-9.7C385.4,105.8,385.4,105.8,385.3,105.7L385.3,105.7L385.3,105.7z"/>
	<path class="st0" d="M385.5,99.6L385.5,99.6c17.9,0,34.9,3.6,50.4,10.2c15.5,6.6,29.4,16,41.1,27.8c11.7,11.7,21.2,25.7,27.8,41.2
		c6.6,15.5,10.2,32.5,10.2,50.4c0,17.9-3.6,34.9-10.2,50.4c-6.5,15.5-16,29.4-27.7,41.2c-2.5,2.5-16.1,15-34.4,31.6
		c-9.5,8.6-20.4,18.4-32,28.8c1.4-5.7,2.2-11.6,2.4-17.5c0.6-25.8-10.8-52.2-34-78.6c21-25.9,19.1-63.5-4.5-87.1l-35.6-35.7l9.2-9.2
		l-11.5-11.5l-26,26l-19.1-19.1c0.9-1.3,1.9-2.6,2.8-3.7c11.8-13.6,25.8-24.9,41.3-32.8C351,104,367.9,99.6,385.5,99.6L385.5,99.6z
		 M172.9,99.6c17.7,0,34.5,4.4,49.9,12.3c15.4,7.9,29.5,19.2,41.3,32.8l15.2,14.6l19.7,19.7l-35.5,35.5L223.2,174l-11.5,11.5
		l40.4,40.5l-26,26l11.5,11.5l9.2-9.2l35.6,35.7c22.4,22.3,57.6,25.4,83.5,7.2c21,23.9,29.7,45.8,29.2,65.9
		c-0.5,18.7-8.9,36.8-25.5,54.5c-20.9,18.5-41.6,36.5-58.2,50.6c-9.4,7.9-17.5,14.7-23.8,19.6c-4.7,3.7-6.7,5-8.5,6.1
		c-1.7-1.1-3.7-2.4-8.5-6.1c-6.2-4.9-14.4-11.6-23.8-19.6c-18.8-15.9-42.4-36.6-66-57.4c-23.6-20.9-47-41.9-65.3-58.5
		c-18.3-16.6-31.8-29.1-34.4-31.6c-11.7-11.7-21.2-25.7-27.8-41.2C47,264,43.4,246.9,43.4,229c0-17.9,3.6-34.9,10.2-50.4
		c6.6-15.5,16-29.4,27.8-41.2c11.7-11.7,25.7-21.2,41.2-27.8C138,103.2,155,99.6,172.9,99.6z M385.5,81.6L385.5,81.6L385.5,81.6
		c-20.7,0-40.4,5.3-58.1,14.3c-17.7,9-33.5,21.8-46.6,37c-0.7,0.8-1,1.4-1.6,2.1c-0.6-0.8-0.9-1.4-1.6-2.2c-13.2-15.2-29-28-46.7-37
		c-17.7-9-37.4-14.3-58.1-14.3c-20.3,0-39.7,4.1-57.4,11.6c-17.6,7.5-33.5,18.3-46.9,31.6C55.3,138.1,44.5,154,37,171.7
		c-7.5,17.6-11.6,37.1-11.6,57.4c0,20.3,4.1,39.8,11.6,57.4c7.5,17.6,18.3,33.5,31.6,46.9c3.9,3.9,16.7,15.6,35,32.2
		c18.4,16.6,41.8,37.7,65.5,58.6c23.6,20.9,47.4,41.7,66.3,57.7c9.5,8,17.7,14.8,24.3,20c6.5,5.1,10.3,8.4,15.4,10.5l0.1,0l0.3,0.1
		c1.1,0.5,2.3,0.7,3.4,0.7h0.7c1.2,0,2.4-0.2,3.4-0.7l0.3-0.1l0,0c5.1-2.1,8.9-5.4,15.4-10.5c6.5-5.1,14.8-12,24.3-20
		c14.3-12.1,31.6-27.2,49.2-42.7l0.5,0.5c3.4-3.1,6.5-6.2,9.5-9.3c2.4-2.1,4.7-4.1,7-6.2c23.6-20.9,47.1-42,65.5-58.6
		c18.4-16.6,31.1-28.3,35-32.2c13.3-13.3,24.1-29.2,31.6-46.9c7.5-17.6,11.6-37.1,11.6-57.4c0-20.3-4.1-39.7-11.6-57.4
		c-7.5-17.7-18.3-33.5-31.6-46.9c-13.3-13.3-29.2-24.1-46.9-31.6C425.3,85.7,405.9,81.6,385.5,81.6z"/>
	<path class="st1" d="M215.4,125.3c-69.3,9.1-70.5,10.9-97.4,28.3c-14.4,9.5-26.4,25.1-34.1,39.9c-10.3,19.6-14.1,42.9-9.4,66.4
		c4.7,23.5,18,47.3,41.8,67.3C91,309.3,74.6,286.4,67,261.8c-7.7-24.6-6.7-50.9,2.7-74.8c7-18,18.8-34.6,35-47.8
		C141.3,109.8,178.9,111.4,215.4,125.3z"/>
</g>
<g>
	<path class="st0" d="M946.2,446.9c-2.3-11.5-8.6-20.6-21.4-20.6c-13,0-21.2,10.9-21.2,23.2c0,13.4,7,17.7,17.5,23.9
		c9.4,5.5,17.2,9.5,17.2,21.6c0,10.9-5.6,16.2-13.5,16.2c-11.1,0-13.2-7.6-14.5-17.7l-9.1,1.2c1.4,14.5,7.2,25.1,23.3,25.1
		c15.3,0,22.9-11.3,22.9-25.7c0-14.1-7.6-19.6-18.8-26.3c-14.3-8.6-15.8-10.9-15.8-18.3c0-7.6,3.4-14.6,12-14.6
		c7.8,0,11.1,6.7,12.6,13.4L946.2,446.9z"/>
	<polygon class="st0" points="1085.2,518.5 1094.3,518.5 1094.3,473.9 1122.4,473.9 1122.4,518.5 1131.6,518.5 1131.6,427.5 
		1122.4,427.5 1122.4,465.7 1094.3,465.7 1094.3,427.5 1085.2,427.5 	"/>
	<polygon class="st0" points="1287.9,510.3 1275.6,510.3 1275.6,518.5 1309.4,518.5 1309.4,510.3 1297,510.3 1297,435.7 
		1309.4,435.7 1309.4,427.5 1275.6,427.5 1275.6,435.7 1287.9,435.7 	"/>
	<path class="st0" d="M1457.8,518.5h9.1V478h10.2l20.5,42.3l8.2-4l-18.8-39c11.2-3.8,15.7-14.5,15.7-25.6
		c0-16.4-11.3-24.2-20.3-24.2h-24.6V518.5z M1467,435.7h11.2c9.3,0,15,4.1,15,16c0,12.3-4.9,18.1-12.8,18.1H1467V435.7z"/>
	<polygon class="st0" points="1656.4,518.5 1665.6,518.5 1665.6,435.7 1684.8,435.7 1684.8,427.5 1636.8,427.5 1636.8,435.7 
		1656.4,435.7 	"/>
	<path class="st0" d="M1366.4,161.4l39.4,111.4h-80.3L1366.4,161.4z M1326.1,74.7l-71.9,116h62.8l-144.6,185.5l-0.8,2H1293l11.3-28
		h124.1l12.7,28h127L1446.6,74.7H1326.1z"/>
	<path class="st0" d="M1172.4,376.2l-1.6,2h0.7L1172.4,376.2z M903.3,74.7l121.4,303.5h134.6l58.7-116.3h-68l112.8-187.2h-93.6
		L1096,257.9l-73.3-183.2H903.3z"/>
	<polygon class="st0" points="667.2,378.2 667.2,74.7 783.4,74.7 783.4,300.8 969.5,300.8 1000.5,378.2 	"/>
	<path class="st0" d="M1692.2,152.1h47c12.2,0,20.2,0.1,23.9,0.2c20.8,0.9,35.3,8.2,43.7,21.8c8.1,13,12.2,30.5,12.2,52.2
		c0,27-5.2,46.5-15.7,58.5c-9.2,10.7-30.2,16-63,16h-48.1V152.1z M1592.3,74.7v303.5h174.6c14.4,0,25.6-0.2,33.8-0.5
		c25.9-1,45.7-4.7,59.4-11.1c43.7-20.3,65.5-65.7,65.5-136.3c0-59.3-15.8-102-47.4-128.1c-16.8-13.9-38.7-22.5-65.5-25.6
		c-12.5-1.3-28.3-2-47.6-2H1592.3z"/>
</g>
</svg>
